<svg xmlns="http://www.w3.org/2000/svg" viewBox="0 0 1920 1080"><defs><style>.cls-1{fill:#191633;}.cls-2{fill:#6a4f79;}.cls-3{fill:#533763;}.cls-4{fill:#b88ad1;}.cls-5{fill:#a66dc6;}.cls-6{fill:none;}.cls-7{fill:#7c5294;}</style></defs><g id="bg"><rect class="cls-1" width="1920" height="1080"/></g><g id="tracos" style="filter:blur(6px);"><g id="grupo_3" data-name="grupo 3"><rect class="cls-2" x="48.89" y="67.73" width="25.36" height="240" rx="12.68"/><rect class="cls-3" x="217.96" y="58.44" width="25.36" height="249.29" rx="12.68"/><rect class="cls-2" x="732.67" y="802.44" width="25.36" height="207.48" rx="12.68"/><rect class="cls-4" x="1070.99" y="612.37" width="26.9" height="319.74" rx="12.68"/><rect class="cls-3" x="251.3" y="676.24" width="25.36" height="283.35" rx="12.68"/><rect class="cls-4" x="631.7" y="752.11" width="25.36" height="243.87" rx="12.68"/><rect class="cls-2" x="526.04" y="347.98" width="25.36" height="153.29" rx="12.68"/><rect class="cls-2" x="902.68" y="341.02" width="25.36" height="207.48" rx="12.68"/><rect class="cls-2" x="1869.92" y="785.4" width="22.17" height="240" rx="10.45" transform="translate(3762.02 1810.81) rotate(180)"/><rect class="cls-5" x="1048.28" y="54.56" width="22.17" height="171.87" rx="10.45" transform="translate(2118.74 281) rotate(-180)"/><rect class="cls-3" x="1393.2" y="416.89" width="22.17" height="207.48" rx="10.45" transform="translate(2808.57 1041.26) rotate(180)"/><rect class="cls-2" x="1761.52" y="313.15" width="22.17" height="207.48" rx="10.45" transform="translate(3545.22 833.77) rotate(-180)"/><rect class="cls-4" x="1360.35" y="97.15" width="22.17" height="243.87" rx="10.45" transform="translate(2742.87 438.16) rotate(180)"/><rect class="cls-6" width="1920" height="1080"/></g><g id="grupo_2" data-name="grupo 2"><rect class="cls-4" x="370.12" y="401.4" width="25.36" height="207.48" rx="12.68"/><rect class="cls-7" x="473.44" y="86.31" width="25.36" height="234.58" rx="12.68"/><rect class="cls-5" x="905.2" y="866.69" width="26.9" height="171.87" rx="12.68"/><rect class="cls-7" x="905.97" y="587.98" width="25.36" height="179.61" rx="12.68"/><rect class="cls-2" x="85.99" y="706.44" width="25.36" height="207.48" rx="12.68"/><rect class="cls-5" x="821.9" y="113.4" width="25.36" height="207.48" rx="12.68"/><rect class="cls-4" x="969.75" y="83.98" width="26.9" height="207.48" rx="12.68"/><rect class="cls-5" x="1799.71" y="648.37" width="22.17" height="144.77" rx="10.45" transform="translate(3621.59 1441.52) rotate(180)"/><rect class="cls-3" x="1722.1" y="785.4" width="22.17" height="249.29" rx="10.45" transform="translate(3466.38 1820.1) rotate(-180)"/><rect class="cls-7" x="1120.55" y="325.53" width="22.17" height="179.61" rx="10.45" transform="translate(2263.27 830.68) rotate(180)"/><rect class="cls-7" x="1637.67" y="450.19" width="22.17" height="179.61" rx="10.45" transform="translate(3297.5 1080) rotate(180)"/><rect class="cls-7" x="1505.3" y="273.66" width="22.17" height="207.48" rx="10.45" transform="translate(3032.77 754.81) rotate(180)"/><rect class="cls-2" x="1452.74" y="591.85" width="22.17" height="153.29" rx="10.45" transform="translate(2927.65 1337) rotate(180)"/><rect class="cls-5" x="1194.05" y="772.24" width="22.17" height="207.48" rx="10.45" transform="translate(2410.27 1751.97) rotate(180)"/><rect class="cls-6" width="1920" height="1080"/><rect class="cls-2" x="1516.38" y="919.34" width="22.17" height="153.29" rx="10.45" transform="translate(3054.94 1991.97) rotate(180)"/><rect class="cls-2" x="1415.37" y="903.08" width="22.17" height="153.29" rx="10.45" transform="translate(2852.92 1959.45) rotate(180)"/><rect class="cls-5" x="657.06" y="13.92" width="22.17" height="144.77" rx="10.45" transform="translate(1336.3 172.61) rotate(180)"/><rect class="cls-4" x="707.31" y="244.24" width="25.36" height="207.48" rx="12.68"/></g><g id="grupo_1" data-name="grupo 1"><rect class="cls-5" x="129.2" y="299.98" width="25.36" height="144.77" rx="12.68"/><rect class="cls-2" x="285.59" y="203.98" width="25.36" height="130.06" rx="12.68"/><rect class="cls-2" x="796.54" y="530.73" width="33.34" height="207.48" rx="16.67"/><rect class="cls-3" x="594.13" y="468.76" width="25.36" height="207.48" rx="12.68"/><rect class="cls-5" x="338.18" y="855.85" width="25.36" height="207.48" rx="12.68"/><rect class="cls-2" x="1662.97" y="759.08" width="22.17" height="130.06" rx="10.45" transform="translate(3348.12 1648.23) rotate(-180)"/><rect class="cls-2" x="1272.07" y="83.21" width="22.17" height="207.48" rx="10.45" transform="translate(2566.31 373.9) rotate(180)"/><rect class="cls-2" x="1848.57" y="179.21" width="22.17" height="207.48" rx="10.45" transform="translate(3719.32 565.9) rotate(-180)"/><rect class="cls-5" x="1616.98" y="29.79" width="22.17" height="207.48" rx="10.45" transform="translate(3256.14 267.06) rotate(-180)"/><rect class="cls-3" x="1338.18" y="695.6" width="22.17" height="235.35" rx="10.45" transform="translate(2698.53 1626.55) rotate(180)"/><rect class="cls-2" x="1155.72" y="544.63" width="22.17" height="207.48" rx="10.45" transform="translate(2333.62 1296.74) rotate(-180)"/><rect class="cls-4" x="1002.07" y="810.18" width="22.17" height="207.48" rx="10.45" transform="translate(2026.31 1827.84) rotate(-180)"/><rect class="cls-7" x="990.98" y="488.45" width="22.17" height="147.9" rx="10.45" transform="translate(2004.14 1124.81) rotate(180)"/><rect class="cls-6" width="1920" height="1080"/></g></g></svg>